<svg xmlns="http://www.w3.org/2000/svg" width="1400" height="340" viewBox="0 0 1400 340" role="img" aria-labelledby="title desc">
  <title id="title">Goat Goal 工作流</title>
  <desc id="desc">Goal 形成计划并等待用户批准。批准后，Goat 创建隔离 Git worktree，并在其中完成执行、验证和最多十轮修正。验证通过后 Goal 才会完成。</desc>
  <defs>
    <marker id="arrow" viewBox="0 0 10 10" refX="8" refY="5" markerWidth="7" markerHeight="7" orient="auto"><path d="M0 0 10 5 0 10Z" fill="#71807D"/></marker>
    <marker id="arrow-pass" viewBox="0 0 10 10" refX="8" refY="5" markerWidth="7" markerHeight="7" orient="auto"><path d="M0 0 10 5 0 10Z" fill="#B7EF4A"/></marker>
  </defs>
  <rect width="1400" height="340" fill="#172329"/>
  <g id="header">
    <g transform="translate(58 46) scale(.75)">
      <path d="M48 20c-4-5-10-8-17-8-11 0-19 8-19 20s8 20 19 20c7 0 13-3 17-8V32H35" fill="none" stroke="#F4EFE4" stroke-width="5.5" stroke-linecap="round" stroke-linejoin="round"/>
      <path d="M22 34l7 7 16-18" fill="none" stroke="#B7EF4A" stroke-width="5.5" stroke-linecap="round" stroke-linejoin="round"/>
    </g>
    <text x="118" y="75" fill="#F4EFE4" font-family="Microsoft YaHei,Noto Sans SC,Arial,sans-serif" font-size="27" font-weight="700">Goal 工作流</text>
    <text x="118" y="104" fill="#98A6A3" font-family="Microsoft YaHei,Noto Sans SC,Arial,sans-serif" font-size="15">批准前不修改 worktree；验证通过后才完成 Goal。</text>
  </g>
  <g id="worktree-context">
    <rect x="725" y="139" width="430" height="166" rx="24" fill="#1C2A30" stroke="#43514F" stroke-width="1.5"/>
    <text x="940" y="129" fill="#98A6A3" font-family="Microsoft YaHei,Noto Sans SC,Arial,sans-serif" font-size="13" text-anchor="middle">隔离 Git worktree · 批准后创建</text>
  </g>
  <g id="main-flow" fill="none" stroke="#71807D" stroke-width="3" marker-end="url(#arrow)">
    <path d="M111 218H309"/>
    <path d="M351 218H549"/>
    <path d="M591 218H789"/>
    <path d="M831 218 C875 188 985 188 1029 218"/>
  </g>
  <path id="pass-flow" d="M1071 218H1269" fill="none" stroke="#B7EF4A" stroke-width="3" marker-end="url(#arrow-pass)"/>
  <path id="feedback-loop" d="M1029 218 C985 248 875 248 831 218" fill="none" stroke="#71807D" stroke-width="2" stroke-linecap="round" stroke-linejoin="round" opacity=".75" marker-end="url(#arrow)"/>
  <g id="workflow-nodes">
    <circle cx="90" cy="218" r="20" fill="#172329" stroke="#71807D" stroke-width="3"/>
    <circle cx="330" cy="218" r="20" fill="#172329" stroke="#71807D" stroke-width="3"/>
    <circle cx="570" cy="218" r="20" fill="#172329" stroke="#71807D" stroke-width="3"/>
    <circle cx="810" cy="218" r="20" fill="#172329" stroke="#71807D" stroke-width="3"/>
    <circle cx="1050" cy="218" r="20" fill="#172329" stroke="#71807D" stroke-width="3"/>
    <circle cx="1290" cy="218" r="20" fill="#B7EF4A"/>
    <path d="M1281 218l6 6 12-14" fill="none" stroke="#172329" stroke-width="3" stroke-linecap="round" stroke-linejoin="round"/>
  </g>
  <g id="workflow-labels" font-family="Microsoft YaHei,Noto Sans SC,Arial,sans-serif" text-anchor="middle">
    <g>
      <text x="90" y="169" fill="#F4EFE4" font-size="22" font-weight="700">Goal</text>
      <text x="90" y="190" fill="#98A6A3" font-size="14">期望结果</text>
    </g>
    <g>
      <text x="330" y="169" fill="#F4EFE4" font-size="22" font-weight="700">计划</text>
      <text x="330" y="190" fill="#98A6A3" font-size="14">范围和检查</text>
    </g>
    <g>
      <text x="570" y="169" fill="#F4EFE4" font-size="22" font-weight="700">批准</text>
      <text x="570" y="190" fill="#98A6A3" font-size="14">用户确认</text>
    </g>
    <g>
      <text x="810" y="169" fill="#F4EFE4" font-size="22" font-weight="700">执行</text>
      <text x="810" y="190" fill="#98A6A3" font-size="14">完成修改</text>
    </g>
    <g>
      <text x="1050" y="169" fill="#F4EFE4" font-size="22" font-weight="700">验证</text>
      <text x="1050" y="190" fill="#98A6A3" font-size="14">检查标准与证据</text>
    </g>
    <g>
      <text x="1290" y="169" fill="#F4EFE4" font-size="22" font-weight="700">完成</text>
      <text x="1290" y="190" fill="#98A6A3" font-size="14">验证通过</text>
    </g>
    <text x="1170" y="249" fill="#B7EF4A" font-size="13">通过</text>
    <text x="930" y="275" fill="#98A6A3" font-size="13">失败：修正后重新验证（最多 10 轮）</text>
  </g>
</svg>
